<!-- A sprite that contains all SVG files -->
<svg xmlns="http://www.w3.org/2000/svg" xmlns:xlink="http://www.w3.org/1999/xlink">
  <defs>
    <symbol id="triangle" xmlns="http://www.w3.org/2000/svg"><polygon strokeWidth="1px" strokeLinejoin="round" strokeMiterlimit="10" points="14.921,2.27 28.667,25.5 1.175,25.5" /></symbol>
    <symbol id="circle" xmlns="http://www.w3.org/2000/svg"><path d="M15,30A15,15,0,1,1,30,15,15,15,0,0,1,15,30ZM15,6.23A8.77,8.77,0,1,0,23.77,15,8.77,8.77,0,0,0,15,6.23Z" /></symbol>
    <symbol id="arrowUp" xmlns="http://www.w3.org/2000/svg"><path d="M28.74,20.81H1.26a1.26,1.26,0,0,1-1-2L14.16.5a1.25,1.25,0,0,1,1-.5h0a1.24,1.24,0,0,1,1,.51L29.75,18.8a1.25,1.25,0,0,1-1,2ZM3.81,18.29H26.22L15.16,3.37Z" /><path d="M28.74,42H1.26a1.28,1.28,0,0,1-1.13-.71A1.26,1.26,0,0,1,.26,40l13.9-18.29a1.28,1.28,0,0,1,1-.5h0a1.24,1.24,0,0,1,1,.51L29.75,40a1.26,1.26,0,0,1,.12,1.32A1.28,1.28,0,0,1,28.74,42ZM3.81,39.47H26.22L15.16,24.55Z" /></symbol>
    <symbol id="upDown" xmlns="http://www.w3.org/2000/svg"><path d="M28.74,44.58a1.28,1.28,0,0,1-1-.51L15.16,27.13l-12.89,17a1.26,1.26,0,1,1-2-1.53l13.9-18.29a1.34,1.34,0,0,1,1-.5,1.24,1.24,0,0,1,1,.51L29.75,42.56a1.27,1.27,0,0,1-1,2Z" /><path d="M14.83,20.82h0a1.28,1.28,0,0,1-1-.52L.25,2a1.27,1.27,0,0,1,2-1.51L14.84,17.45,27.73.5a1.26,1.26,0,0,1,2,1.53L15.84,20.32A1.28,1.28,0,0,1,14.83,20.82Z" /></symbol>
    <symbol id="box" xmlns="http://www.w3.org/2000/svg"><path d="M28,2V28H2V2H28m.13-2H1.88A1.88,1.88,0,0,0,0,1.88V28.13A1.88,1.88,0,0,0,1.88,30H28.13A1.87,1.87,0,0,0,30,28.13V1.88A1.88,1.88,0,0,0,28.13,0Z" /></symbol>
    <symbol id="hexa" xmlns="http://www.w3.org/2000/svg"><polygon strokeLinejoin="round" strokeMiterlimit="10" points="27.5,21.904 15,28.809  2.5,21.904 2.5,8.095 15,1.19 27.5,8.095" /></symbol>
    <symbol id="cross" xmlns="http://www.w3.org/2000/svg"><path strokeWidth="3px" d="M60.5,50l34.8-34.8c2.9-2.9,2.9-7.6,0-10.5c-2.9-2.9-7.6-2.9-10.5,0L50,39.5L15.2,4.7c-2.9-2.9-7.6-2.9-10.5,0    c-2.9,2.9-2.9,7.6,0,10.5L39.5,50L4.7,84.8c-2.9,2.9-2.9,7.6,0,10.5c1.4,1.4,3.3,2.2,5.2,2.2s3.8-0.7,5.2-2.2L50,60.5l34.8,34.8    c1.4,1.4,3.3,2.2,5.2,2.2c1.9,0,3.8-0.7,5.2-2.2c2.9-2.9,2.9-7.6,0-10.5L60.5,50z" /></symbol>
    <symbol id="twitter" xmlns="http://www.w3.org/2000/svg"><path d="M32,6.1c-1.2,0.5-2.4,0.9-3.8,1c1.4-0.8,2.4-2.1,2.9-3.6c-1.3,0.8-2.7,1.3-4.2,1.6C25.7,3.8,24,3,22.2,3    c-3.6,0-6.6,2.9-6.6,6.6c0,0.5,0.1,1,0.2,1.5C10.3,10.8,5.5,8.2,2.2,4.2c-0.6,1-0.9,2.1-0.9,3.3c0,2.3,1.2,4.3,2.9,5.5    c-1.1,0-2.1-0.3-3-0.8c0,0,0,0.1,0,0.1c0,3.2,2.3,5.8,5.3,6.4c-0.6,0.1-1.1,0.2-1.7,0.2c-0.4,0-0.8,0-1.2-0.1   c0.8,2.6,3.3,4.5,6.1,4.6c-2.2,1.8-5.1,2.8-8.2,2.8c-0.5,0-1.1,0-1.6-0.1C2.9,27.9,6.4,29,10.1,29c12.1,0,18.7-10,18.7-18.7    c0-0.3,0-0.6,0-0.8C30,8.5,31.1,7.4,32,6.1z"/></symbol>
    <symbol id="github"><path fill-rule="evenodd" clip-rule="evenodd"  d="M16,0.4c-8.8,0-16,7.2-16,16c0,7.1,4.6,13.1,10.9,15.2
	c0.8,0.1,1.1-0.3,1.1-0.8c0-0.4,0-1.4,0-2.7c-4.5,1-5.4-2.1-5.4-2.1c-0.7-1.8-1.8-2.3-1.8-2.3c-1.5-1,0.1-1,0.1-1
	c1.6,0.1,2.5,1.6,2.5,1.6c1.4,2.4,3.7,1.7,4.7,1.3c0.1-1,0.6-1.7,1-2.1c-3.6-0.4-7.3-1.8-7.3-7.9c0-1.7,0.6-3.2,1.6-4.3
	c-0.2-0.4-0.7-2,0.2-4.2c0,0,1.3-0.4,4.4,1.6c1.3-0.4,2.6-0.5,4-0.5c1.4,0,2.7,0.2,4,0.5C23.1,6.6,24.4,7,24.4,7
	c0.9,2.2,0.3,3.8,0.2,4.2c1,1.1,1.6,2.5,1.6,4.3c0,6.1-3.7,7.5-7.3,7.9c0.6,0.5,1.1,1.5,1.1,3c0,2.1,0,3.9,0,4.4
	c0,0.4,0.3,0.9,1.1,0.8C27.4,29.5,32,23.5,32,16.4C32,7.6,24.8,0.4,16,0.4z"/></symbol>
  </defs>
</svg>