<?xml version="1.0" standalone="no"?>
<!DOCTYPE svg PUBLIC "-//W3C//DTD SVG 20010904//EN"
 "http://www.w3.org/TR/2001/REC-SVG-20010904/DTD/svg10.dtd">
<svg version="1.0" xmlns="http://www.w3.org/2000/svg"
 width="1092.000000pt" height="1092.000000pt" viewBox="0 0 1092.000000 1092.000000"
 preserveAspectRatio="xMidYMid meet">
<metadata>
Created by potrace 1.14, written by Peter Selinger 2001-2017
</metadata>
<g transform="translate(0.000000,1092.000000) scale(0.100000,-0.100000)"
fill="#000000" stroke="none">
<path d="M5039 9752 c6 -18 11 -36 12 -40 1 -4 3 -11 4 -17 13 -46 27 -106 30
-133 2 -18 6 -41 9 -50 6 -17 26 -143 32 -197 1 -16 5 -48 9 -70 13 -96 19
-247 19 -480 0 -208 -7 -430 -14 -430 -1 0 -3 -20 -5 -45 -3 -49 -16 -155 -30
-239 -4 -21 -15 -93 -20 -126 -1 -5 -3 -12 -4 -15 -2 -3 -4 -14 -5 -25 -3 -22
-22 -117 -30 -150 -3 -11 -10 -47 -17 -80 -7 -33 -17 -63 -23 -67 -6 -4 -8 -8
-4 -8 3 0 0 -24 -8 -52 -8 -29 -17 -63 -19 -75 -8 -36 -95 -297 -105 -315 -6
-10 -10 -23 -10 -29 0 -6 -6 -25 -14 -42 -8 -18 -38 -88 -66 -157 -56 -135
-176 -385 -196 -410 -7 -8 -14 -22 -16 -30 -2 -8 -7 -18 -13 -22 -5 -4 -10
-11 -10 -15 0 -4 -10 -25 -22 -46 -12 -20 -22 -40 -22 -44 0 -3 -3 -9 -8 -12
-4 -3 -14 -17 -22 -31 -8 -14 -56 -97 -106 -185 -97 -169 -166 -293 -198 -360
-11 -22 -23 -42 -27 -45 -4 -3 -11 -15 -14 -28 -4 -13 -23 -50 -42 -84 -19
-33 -37 -71 -40 -84 -3 -13 -10 -24 -15 -24 -5 0 -9 -4 -9 -9 0 -4 -27 -65
-60 -134 -33 -70 -60 -131 -60 -137 0 -5 -4 -10 -8 -10 -5 0 -9 -6 -10 -12 0
-11 -115 -283 -153 -363 -34 -74 -167 -450 -158 -450 1 0 -3 -10 -10 -23 -10
-18 -63 -185 -77 -242 -2 -8 -12 -49 -24 -90 -11 -41 -23 -91 -26 -110 -3 -19
-8 -38 -11 -42 -4 -8 -7 -20 -18 -78 -3 -14 -7 -36 -10 -50 -21 -100 -45 -252
-49 -307 -1 -12 -5 -25 -9 -29 -3 -4 -2 -14 3 -24 5 -10 6 -21 2 -25 -9 -8
-10 -41 -12 -225 -1 -155 6 -252 25 -338 3 -15 7 -36 9 -48 18 -93 121 -342
188 -452 21 -34 38 -65 38 -67 0 -7 94 -139 153 -215 200 -256 477 -486 747
-618 92 -45 174 -82 190 -87 3 0 41 -13 85 -27 90 -29 190 -54 250 -63 23 -3
52 -7 65 -10 140 -27 405 -23 655 10 33 5 70 9 83 9 12 1 22 5 22 10 0 5 2 7
5 4 3 -3 34 1 68 9 34 7 73 16 87 19 14 3 43 10 65 16 22 7 43 12 48 14 4 1 9
3 12 4 3 1 8 3 13 4 131 34 399 155 488 222 17 13 34 20 38 17 3 -4 6 -1 6 5
0 6 8 13 18 16 9 3 28 16 42 29 14 13 33 27 42 33 57 32 274 245 319 314 9 14
28 39 43 55 14 17 26 33 26 37 0 4 6 13 13 20 56 56 208 366 262 533 28 88 47
151 51 167 2 10 6 26 8 37 2 10 9 36 15 57 6 21 8 40 6 42 -2 3 0 12 4 21 5 9
12 38 15 65 4 27 9 52 11 56 2 3 6 33 10 65 3 33 8 67 10 75 2 8 7 44 10 80 3
36 8 76 10 90 15 79 23 469 10 490 -3 5 -1 10 5 10 6 0 8 5 4 12 -5 7 -9 31
-10 53 -2 61 -15 213 -20 238 -2 12 -6 47 -9 77 -2 30 -9 81 -14 114 -6 32
-10 61 -9 65 0 3 -1 8 -2 11 -3 8 -8 41 -15 85 -3 22 -21 117 -40 210 -20 94
-37 179 -39 190 -2 11 -20 83 -39 160 -19 77 -38 153 -42 169 -3 15 -8 27 -10
25 -3 -4 -10 -49 -20 -129 -10 -84 -20 -147 -29 -185 -29 -128 -42 -176 -77
-279 -23 -67 -71 -182 -108 -256 -63 -126 -166 -303 -194 -332 -7 -7 -38 -48
-71 -90 -84 -111 -220 -245 -306 -303 -41 -27 -77 -52 -80 -55 -3 -3 -18 -16
-35 -28 -92 -70 -255 -259 -255 -296 0 -9 -4 -16 -10 -16 -5 0 -10 -4 -10 -9
0 -5 -14 -40 -32 -78 -17 -37 -31 -71 -30 -75 1 -5 -2 -8 -8 -8 -5 0 -10 -7
-10 -15 0 -8 -18 -33 -39 -55 -32 -34 -44 -40 -67 -36 -16 2 -37 5 -46 5 -30
2 -74 55 -94 112 -59 178 16 372 197 510 18 13 51 39 73 57 23 18 59 47 81 65
33 26 237 230 288 287 43 48 163 209 220 295 37 55 71 106 77 113 6 6 8 12 4
12 -4 0 2 10 13 23 11 12 24 32 28 45 3 12 11 22 17 22 6 0 8 3 5 6 -4 4 2 19
12 33 17 23 141 275 141 285 0 2 12 30 27 62 15 33 28 61 29 64 2 9 15 45 29
76 16 36 54 172 60 211 2 15 7 39 10 53 3 14 7 79 10 145 2 66 4 125 5 130 1
6 1 12 0 15 -2 3 -4 30 -6 60 -1 30 -3 55 -4 55 -2 0 -4 11 -15 110 -4 33 -12
68 -17 78 -5 9 -7 17 -4 17 2 0 -2 28 -11 63 -8 34 -17 73 -19 86 -3 13 -10
33 -15 43 -6 11 -12 27 -14 36 -5 25 -91 245 -106 273 -7 13 -11 24 -10 24 4
0 -10 37 -30 82 -10 24 -19 45 -19 47 0 7 -148 354 -186 434 -19 41 -34 76
-34 78 0 2 -21 47 -47 101 -26 54 -48 100 -48 103 -1 3 -24 51 -51 108 -46 97
-70 129 -60 80 6 -30 15 -103 23 -203 9 -100 8 -486 0 -580 -12 -128 -24 -226
-32 -255 -2 -8 -7 -35 -10 -60 -8 -56 -50 -232 -77 -325 -22 -72 -26 -86 -31
-107 -1 -7 -5 -17 -8 -23 -4 -5 -14 -35 -24 -65 -10 -30 -22 -61 -28 -67 -5
-7 -7 -13 -4 -13 6 0 -76 -187 -128 -290 -38 -76 -154 -281 -165 -290 -3 -3
-18 -25 -34 -50 -31 -48 -159 -222 -187 -255 -129 -148 -230 -248 -305 -301
-148 -104 -242 -181 -310 -254 -73 -79 -114 -126 -114 -132 0 -4 -6 -13 -13
-20 -36 -38 -119 -190 -157 -288 -27 -71 -63 -144 -72 -148 -5 -2 -8 -9 -8
-16 0 -20 -63 -84 -95 -96 -35 -13 -119 3 -149 29 -65 56 -109 187 -106 311 3
84 5 104 13 117 5 7 6 13 3 13 -8 0 29 100 58 157 26 52 96 144 146 193 14 14
70 61 124 104 197 159 391 350 542 536 16 19 31 37 34 40 3 3 17 21 31 40 15
19 36 46 48 59 11 13 21 27 21 31 0 3 8 15 18 26 9 11 35 46 57 79 22 33 43
62 46 65 3 3 14 20 24 39 9 19 21 39 26 45 15 18 59 86 59 92 0 2 12 23 27 47
82 130 230 430 317 642 21 50 41 99 46 110 24 56 91 251 96 280 2 11 11 54 20
95 44 210 49 428 19 725 -3 27 -21 146 -31 203 -2 12 -6 32 -8 45 -2 12 -11
55 -21 96 -9 40 -18 78 -19 85 -6 27 -19 76 -39 141 -11 39 -21 75 -21 80 -4
38 -91 271 -107 285 -3 3 -16 25 -30 50 -13 25 -27 47 -31 48 -5 2 -8 9 -8 15
0 6 -7 18 -16 28 -9 10 -23 31 -32 47 -46 82 -97 162 -104 162 -4 0 -8 5 -8
10 0 6 -30 56 -67 111 -38 55 -72 108 -78 117 -10 16 -19 29 -42 56 -7 8 -13
20 -13 26 0 5 -4 10 -10 10 -5 0 -10 5 -10 11 0 6 -6 16 -12 23 -7 8 -20 24
-28 36 -32 48 -84 115 -92 118 -4 2 -8 10 -8 18 0 8 -7 17 -15 20 -8 4 -15 10
-15 15 0 11 -114 156 -142 181 -10 9 -19 21 -19 25 -1 7 -50 67 -121 147 l-28
30 9 -32z m-1116 -6553 c59 -30 141 -102 179 -157 30 -43 74 -122 128 -229 12
-24 26 -43 31 -43 5 0 9 -5 9 -11 0 -19 160 -186 240 -249 45 -36 209 -150
216 -150 2 0 27 -15 56 -33 29 -19 94 -53 143 -78 50 -24 92 -47 93 -51 2 -5
11 -8 21 -8 9 0 21 -4 27 -8 5 -5 32 -18 61 -30 86 -37 108 -45 113 -47 166
-50 180 -57 215 -98 116 -140 133 -323 38 -428 -35 -39 -133 -85 -160 -75 -7
3 -13 2 -13 -3 0 -9 -196 -7 -226 3 -10 3 -35 8 -54 11 -53 9 -152 35 -175 45
-11 5 -45 19 -75 30 -30 12 -99 44 -155 72 -55 28 -110 56 -122 62 -13 6 -23
14 -23 19 0 4 -7 7 -15 7 -8 0 -15 3 -15 8 0 4 -16 16 -35 26 -19 11 -35 23
-35 28 0 4 -5 8 -11 8 -33 0 -269 216 -360 330 -39 49 -139 196 -139 204 0 3
-13 27 -28 53 -54 92 -120 269 -147 396 -2 12 -7 35 -11 50 -17 81 -23 222
-11 267 9 36 64 103 78 94 4 -2 11 1 14 7 10 16 98 3 148 -22z"/>
</g>
</svg>
